<mxfile host="app.diagrams.net" agent="Mozilla/5.0 (X11; Linux x86_64; rv:133.0) Gecko/20100101 Firefox/133.0" version="25.0.3">
  <diagram name="Page-1" id="slWfrK2BVKOdpw72XCC3">
    <mxGraphModel dx="2359" dy="799" grid="1" gridSize="10" guides="1" tooltips="1" connect="1" arrows="1" fold="1" page="1" pageScale="1" pageWidth="850" pageHeight="1100" math="0" shadow="0">
      <root>
        <mxCell id="0" />
        <mxCell id="1" parent="0" />
        <mxCell id="yjS7_VZbEDUMgCzmWkyh-1" value="&lt;div&gt;Benutzer&lt;/div&gt;" style="shape=umlActor;verticalLabelPosition=bottom;verticalAlign=top;html=1;outlineConnect=0;" parent="1" vertex="1">
          <mxGeometry x="70" y="367.5" width="30" height="60" as="geometry" />
        </mxCell>
        <mxCell id="PhSC0Qj4RTv7cJ-6cNn7-1" value="&lt;div&gt;HDCP manuell&lt;/div&gt;&lt;div&gt;auslösen&lt;/div&gt;" style="ellipse;whiteSpace=wrap;html=1;" parent="1" vertex="1">
          <mxGeometry x="460" y="230" width="120" height="80" as="geometry" />
        </mxCell>
        <mxCell id="PhSC0Qj4RTv7cJ-6cNn7-5" value="&lt;div&gt;Ping Sweep&lt;/div&gt;&lt;div&gt;auslösen ???&lt;/div&gt;" style="ellipse;whiteSpace=wrap;html=1;" parent="1" vertex="1">
          <mxGeometry x="-280" y="427.5" width="120" height="80" as="geometry" />
        </mxCell>
        <mxCell id="WEPJUND3bTC0Y4J7LyjD-1" value="MAC Spoofing ???" style="ellipse;whiteSpace=wrap;html=1;" vertex="1" parent="1">
          <mxGeometry x="-280" y="262.5" width="120" height="80" as="geometry" />
        </mxCell>
        <mxCell id="WEPJUND3bTC0Y4J7LyjD-2" value="&lt;div&gt;DHCP Informationen &lt;br&gt;&lt;/div&gt;&lt;div&gt;anzeigen lassen&lt;br&gt;&lt;/div&gt;" style="ellipse;whiteSpace=wrap;html=1;" vertex="1" parent="1">
          <mxGeometry x="240" y="510" width="120" height="80" as="geometry" />
        </mxCell>
        <mxCell id="WEPJUND3bTC0Y4J7LyjD-3" value="&lt;div&gt;Netzverkehr&lt;/div&gt;&lt;div&gt;anzeigen lassen&lt;br&gt;&lt;/div&gt;" style="ellipse;whiteSpace=wrap;html=1;" vertex="1" parent="1">
          <mxGeometry x="240" y="380" width="120" height="80" as="geometry" />
        </mxCell>
        <mxCell id="WEPJUND3bTC0Y4J7LyjD-4" value="" style="ellipse;whiteSpace=wrap;html=1;" vertex="1" parent="1">
          <mxGeometry x="660" y="520" width="120" height="80" as="geometry" />
        </mxCell>
        <mxCell id="WEPJUND3bTC0Y4J7LyjD-6" value="&lt;div&gt;?! Touchscreen &lt;br&gt;&lt;/div&gt;&lt;div&gt;bedienen ?!&lt;br&gt;&lt;/div&gt;" style="ellipse;whiteSpace=wrap;html=1;" vertex="1" parent="1">
          <mxGeometry x="-250" y="590" width="120" height="80" as="geometry" />
        </mxCell>
        <mxCell id="WEPJUND3bTC0Y4J7LyjD-9" value="include" style="rounded=0;orthogonalLoop=1;jettySize=auto;html=1;exitX=1;exitY=0.5;exitDx=0;exitDy=0;entryX=0;entryY=0.5;entryDx=0;entryDy=0;" edge="1" parent="1" source="WEPJUND3bTC0Y4J7LyjD-7" target="PhSC0Qj4RTv7cJ-6cNn7-1">
          <mxGeometry relative="1" as="geometry" />
        </mxCell>
        <mxCell id="WEPJUND3bTC0Y4J7LyjD-7" value="&lt;div&gt;Zugang zum &lt;br&gt;&lt;/div&gt;&lt;div&gt;Netzwerk prüfen&lt;br&gt;&lt;/div&gt;" style="ellipse;whiteSpace=wrap;html=1;" vertex="1" parent="1">
          <mxGeometry x="240" y="240" width="120" height="80" as="geometry" />
        </mxCell>
      </root>
    </mxGraphModel>
  </diagram>
</mxfile>
